<svg xmlns="http://www.w3.org/2000/svg" viewBox="0 0 48 48">
  <rect width="48" height="48" rx="10" fill="#0e1512"/>
  <path d="M13.8 30.6C16.7 29.9 20.2 29.5 24 29.5s7.3.4 10.2 1.1c2.7.6 5.8 2.2 7.2 3.2L24.8 7.4a1 1 0 00-1.7 0L6.6 33.8c1.4-1 4.5-2.5 7.2-3.2z" fill="#00c9b1"/>
  <path fill-rule="evenodd" clip-rule="evenodd" d="M24 44c-5.1 0-9.9-.7-13.4-1.9-1.7-.6-3.3-1.4-4.5-2.4C4.9 38.7 4 37.4 4 35.7c0-.9.3-1.7.5-2.1L21 6.3a3 3 0 015.1 0l16.5 27.3c.2.3.6 1.1.6 2.1 0 1.7-.9 3-2.1 3.9-1.2 1-2.8 1.8-4.5 2.4C33.9 43.3 29.1 44 24 44zm12-15L24 9.8 12 29c.45-.16.9-.27 1.36-.37C16.43 27.9 20.1 27.5 24 27.5s7.57.4 10.64 1.13L36 29z" fill="#00c9b1"/>
</svg>
